<svg id="SvgjsSvg1006" width="519.5" height="741" xmlns="http://www.w3.org/2000/svg" version="1.1" xmlns:xlink="http://www.w3.org/1999/xlink" xmlns:svgjs="http://svgjs.com/svgjs"><defs id="SvgjsDefs1007"><marker id="SvgjsMarker1046" markerWidth="16" markerHeight="12" refX="16" refY="6" viewBox="0 0 16 12" orient="auto" markerUnits="userSpaceOnUse" stroke-dasharray="0,0"><path id="SvgjsPath1047" d="M0,2 L14,6 L0,11 L0,2" fill="#323232" stroke="#323232" stroke-width="2"></path></marker><marker id="SvgjsMarker1050" markerWidth="16" markerHeight="12" refX="16" refY="6" viewBox="0 0 16 12" orient="auto" markerUnits="userSpaceOnUse" stroke-dasharray="0,0"><path id="SvgjsPath1051" d="M0,2 L14,6 L0,11 L0,2" fill="#323232" stroke="#323232" stroke-width="2"></path></marker><marker id="SvgjsMarker1054" markerWidth="16" markerHeight="12" refX="16" refY="6" viewBox="0 0 16 12" orient="auto" markerUnits="userSpaceOnUse" stroke-dasharray="0,0"><path id="SvgjsPath1055" d="M0,2 L14,6 L0,11 L0,2" fill="#323232" stroke="#323232" stroke-width="2"></path></marker><marker id="SvgjsMarker1062" markerWidth="16" markerHeight="12" refX="16" refY="6" viewBox="0 0 16 12" orient="auto" markerUnits="userSpaceOnUse" stroke-dasharray="0,0"><path id="SvgjsPath1063" d="M0,2 L14,6 L0,11 L0,2" fill="#323232" stroke="#323232" stroke-width="2"></path></marker><marker id="SvgjsMarker1066" markerWidth="16" markerHeight="12" refX="16" refY="6" viewBox="0 0 16 12" orient="auto" markerUnits="userSpaceOnUse" stroke-dasharray="0,0"><path id="SvgjsPath1067" d="M0,2 L14,6 L0,11 L0,2" fill="#323232" stroke="#323232" stroke-width="2"></path></marker><marker id="SvgjsMarker1070" markerWidth="16" markerHeight="12" refX="16" refY="6" viewBox="0 0 16 12" orient="auto" markerUnits="userSpaceOnUse" stroke-dasharray="0,0"><path id="SvgjsPath1071" d="M0,2 L14,6 L0,11 L0,2" fill="#323232" stroke="#323232" stroke-width="2"></path></marker><marker id="SvgjsMarker1074" markerWidth="16" markerHeight="12" refX="16" refY="6" viewBox="0 0 16 12" orient="auto" markerUnits="userSpaceOnUse" stroke-dasharray="0,0"><path id="SvgjsPath1075" d="M0,2 L14,6 L0,11 L0,2" fill="#323232" stroke="#323232" stroke-width="2"></path></marker><marker id="SvgjsMarker1078" markerWidth="16" markerHeight="12" refX="16" refY="6" viewBox="0 0 16 12" orient="auto" markerUnits="userSpaceOnUse" stroke-dasharray="0,0"><path id="SvgjsPath1079" d="M0,2 L14,6 L0,11 L0,2" fill="#323232" stroke="#323232" stroke-width="2"></path></marker></defs><g id="SvgjsG1008" transform="translate(210.75,25)"><path id="SvgjsPath1009" d="M 16.666666666666668 0L 83.33333333333333 0C 105.55555555555556 0 105.55555555555556 50 83.33333333333333 50L 16.666666666666668 50C -5.555555555555556 50 -5.555555555555556 0 16.666666666666668 0Z" stroke="rgba(50,50,50,1)" stroke-width="2" fill-opacity="1" fill="#ffffff"></path><g id="SvgjsG1010"><text id="SvgjsText1011" font-family="微软雅黑" text-anchor="middle" font-size="16px" width="80px" fill="#323232" font-weight="400" align="middle" lineHeight="125%" anchor="middle" family="微软雅黑" size="16px" weight="400" font-style="" opacity="1" y="13" transform="rotate(0)"><tspan id="SvgjsTspan1012" dy="20" x="50"><tspan id="SvgjsTspan1013" style="text-decoration:;">开始</tspan></tspan></text></g></g><g id="SvgjsG1014" transform="translate(176.75,110)"><path id="SvgjsPath1015" d="M 13.666666666666666 0L 168 0L 154.33333333333334 41L 0 41L 13.666666666666666 0Z" stroke="rgba(50,50,50,1)" stroke-width="2" fill-opacity="1" fill="#ffffff"></path><g id="SvgjsG1016"><text id="SvgjsText1017" font-family="微软雅黑" text-anchor="middle" font-size="16px" width="118px" fill="#323232" font-weight="400" align="middle" lineHeight="125%" anchor="middle" family="微软雅黑" size="16px" weight="400" font-style="" opacity="1" y="8.5" transform="rotate(0)"><tspan id="SvgjsTspan1018" dy="20" x="84.2"><tspan id="SvgjsTspan1019" style="text-decoration:;">读入密文C</tspan></tspan></text></g></g><g id="SvgjsG1020" transform="translate(105.75,316)"><path id="SvgjsPath1021" d="M 0 0L 310 0L 310 46L 0 46Z" stroke="rgba(50,50,50,1)" stroke-width="2" fill-opacity="1" fill="#ffffff"></path><g id="SvgjsG1022"><text id="SvgjsText1023" font-family="微软雅黑" text-anchor="middle" font-size="16px" width="290px" fill="#323232" font-weight="400" align="middle" lineHeight="125%" anchor="middle" family="微软雅黑" size="16px" weight="400" font-style="" opacity="1" y="11" transform="rotate(0)"><tspan id="SvgjsTspan1024" dy="20" x="155"><tspan id="SvgjsTspan1025" style="text-decoration:;">在密文中寻找所有长度为 N 的重复字段</tspan></tspan></text></g></g><g id="SvgjsG1026" transform="translate(166.25,396)"><path id="SvgjsPath1027" d="M 0 0L 189 0L 189 44L 0 44Z" stroke="rgba(50,50,50,1)" stroke-width="2" fill-opacity="1" fill="#ffffff"></path><g id="SvgjsG1028"><text id="SvgjsText1029" font-family="微软雅黑" text-anchor="middle" font-size="16px" width="169px" fill="#323232" font-weight="400" align="middle" lineHeight="125%" anchor="middle" family="微软雅黑" size="16px" weight="400" font-style="" opacity="1" y="10" transform="rotate(0)"><tspan id="SvgjsTspan1030" dy="20" x="94.5"><tspan id="SvgjsTspan1031" style="text-decoration:;"> 计算重复字段的间距</tspan></tspan></text></g></g><g id="SvgjsG1032" transform="translate(136.5,467)"><path id="SvgjsPath1033" d="M 0 0L 248.5 0L 248.5 47L 0 47Z" stroke="rgba(50,50,50,1)" stroke-width="2" fill-opacity="1" fill="#ffffff"></path><g id="SvgjsG1034"><text id="SvgjsText1035" font-family="微软雅黑" text-anchor="middle" font-size="16px" width="229px" fill="#323232" font-weight="400" align="middle" lineHeight="125%" anchor="middle" family="微软雅黑" size="16px" weight="400" font-style="" opacity="1" y="11.5" transform="rotate(0)"><tspan id="SvgjsTspan1036" dy="20" x="124.5"><tspan id="SvgjsTspan1037" style="text-decoration:;"> 计算这些间距的最大公约数 d_i</tspan></tspan></text></g></g><g id="SvgjsG1038" transform="translate(153.25,546)"><path id="SvgjsPath1039" d="M 0 0L 215 0L 215 44L 0 44Z" stroke="rgba(50,50,50,1)" stroke-width="2" fill-opacity="1" fill="#ffffff"></path><g id="SvgjsG1040"><text id="SvgjsText1041" font-family="微软雅黑" text-anchor="middle" font-size="16px" width="195px" fill="#323232" font-weight="400" align="middle" lineHeight="125%" anchor="middle" family="微软雅黑" size="16px" weight="400" font-style="" opacity="1" y="10" transform="rotate(0)"><tspan id="SvgjsTspan1042" dy="20" x="107.5"><tspan id="SvgjsTspan1043" style="text-decoration:;"> 取d_i中最大的三个，输出</tspan></tspan></text></g></g><g id="SvgjsG1044"><path id="SvgjsPath1045" d="M260.75 75L260.75 92.5L260.75 92.5L260.75 110" stroke="#323232" stroke-width="2" fill="none" marker-end="url(#SvgjsMarker1046)"></path></g><g id="SvgjsG1048"><path id="SvgjsPath1049" d="M260.75 151L260.75 171L260.75 171L260.75 191" stroke="#323232" stroke-width="2" fill="none" marker-end="url(#SvgjsMarker1050)"></path></g><g id="SvgjsG1052"><path id="SvgjsPath1053" d="M260.75 270L260.75 293L260.75 293L260.75 316" stroke="#323232" stroke-width="2" fill="none" marker-end="url(#SvgjsMarker1054)"></path><rect id="SvgjsRect1056" width="8" height="16" x="256.75" y="277.1" fill="#ffffff"></rect><text id="SvgjsText1057" font-family="微软雅黑" text-anchor="middle" font-size="13px" width="8px" fill="#323232" font-weight="400" align="top" lineHeight="16px" anchor="middle" family="微软雅黑" size="13px" weight="400" font-style="" opacity="1" y="275.475" transform="rotate(0)"><tspan id="SvgjsTspan1058" dy="16" x="260.75"><tspan id="SvgjsTspan1059" style="text-decoration:;">Y</tspan></tspan></text></g><g id="SvgjsG1060"><path id="SvgjsPath1061" d="M260.75 362L260.75 379L260.75 379L260.75 396" stroke="#323232" stroke-width="2" fill="none" marker-end="url(#SvgjsMarker1062)"></path></g><g id="SvgjsG1064"><path id="SvgjsPath1065" d="M260.75 440L260.75 453.5L260.75 453.5L260.75 467" stroke="#323232" stroke-width="2" fill="none" marker-end="url(#SvgjsMarker1066)"></path></g><g id="SvgjsG1068"><path id="SvgjsPath1069" d="M260.75 514L260.75 530L260.75 530L260.75 546" stroke="#323232" stroke-width="2" fill="none" marker-end="url(#SvgjsMarker1070)"></path></g><g id="SvgjsG1072"><path id="SvgjsPath1073" d="M260.75 590L260.75 620L25 620L25 230.5L145 230.5" stroke="#323232" stroke-width="2" fill="none" marker-end="url(#SvgjsMarker1074)"></path></g><g id="SvgjsG1076"><path id="SvgjsPath1077" d="M376.5 230.5L494.91666666666674 230.5L494.91666666666674 689.5L464.91666666666674 689.5" stroke="#323232" stroke-width="2" fill="none" marker-end="url(#SvgjsMarker1078)"></path><rect id="SvgjsRect1080" width="11" height="16" x="491.91666666666674" y="451.99999999999994" fill="#ffffff"></rect><text id="SvgjsText1081" font-family="微软雅黑" text-anchor="middle" font-size="13px" width="11px" fill="#323232" font-weight="400" align="top" lineHeight="16px" anchor="middle" family="微软雅黑" size="13px" weight="400" font-style="" opacity="1" y="450.37499999999994" transform="rotate(0)"><tspan id="SvgjsTspan1082" dy="16" x="497.41666666666674"><tspan id="SvgjsTspan1083" style="text-decoration:;">N</tspan></tspan></text></g><g id="SvgjsG1084" transform="translate(145,191)"><path id="SvgjsPath1085" d="M 0 39.5L 115.75 0L 231.5 39.5L 115.75 79L 0 39.5Z" stroke="rgba(50,50,50,1)" stroke-width="2" fill-opacity="1" fill="#ffffff"></path><g id="SvgjsG1086"><text id="SvgjsText1087" font-family="微软雅黑" text-anchor="middle" font-size="16px" width="212px" fill="#323232" font-weight="400" align="middle" lineHeight="125%" anchor="middle" family="微软雅黑" size="16px" weight="400" font-style="" opacity="1" y="27.5" transform="rotate(0)"><tspan id="SvgjsTspan1088" dy="20" x="116"><tspan id="SvgjsTspan1089" style="text-decoration:;">for 循环：N = 2, 3, 4 ?</tspan></tspan></text></g></g><g id="SvgjsG1090" transform="translate(47.75,663)"><path id="SvgjsPath1091" d="M 17.666666666666668 0L 426 0L 408.3333333333333 53L 0 53L 17.666666666666668 0Z" stroke="rgba(50,50,50,1)" stroke-width="2" fill-opacity="1" fill="#ffffff"></path><g id="SvgjsG1092"><text id="SvgjsText1093" font-family="微软雅黑" text-anchor="middle" font-size="16px" width="299px" fill="#323232" font-weight="400" align="middle" lineHeight="125%" anchor="middle" family="微软雅黑" size="16px" weight="400" font-style="" opacity="1" y="14.5" transform="rotate(0)"><tspan id="SvgjsTspan1094" dy="20" x="213.4"><tspan id="SvgjsTspan1095" style="text-decoration:;">所有 d_i 中最大的那个为猜测的密钥长度</tspan></tspan></text></g></g></svg>