<svg id="SvgjsSvg1006" width="780" height="595" xmlns="http://www.w3.org/2000/svg" version="1.1" xmlns:xlink="http://www.w3.org/1999/xlink" xmlns:svgjs="http://svgjs.com/svgjs"><defs id="SvgjsDefs1007"><marker id="SvgjsMarker1022" markerWidth="16" markerHeight="12" refX="16" refY="6" viewBox="0 0 16 12" orient="auto" markerUnits="userSpaceOnUse" stroke-dasharray="0,0"><path id="SvgjsPath1023" d="M0,2 L14,6 L0,11 L0,2" fill="#323232" stroke="#323232" stroke-width="2"></path></marker><marker id="SvgjsMarker1062" markerWidth="16" markerHeight="12" refX="16" refY="6" viewBox="0 0 16 12" orient="auto" markerUnits="userSpaceOnUse" stroke-dasharray="0,0"><path id="SvgjsPath1063" d="M0,2 L14,6 L0,11 L0,2" fill="#323232" stroke="#323232" stroke-width="2"></path></marker><marker id="SvgjsMarker1066" markerWidth="16" markerHeight="12" refX="16" refY="6" viewBox="0 0 16 12" orient="auto" markerUnits="userSpaceOnUse" stroke-dasharray="0,0"><path id="SvgjsPath1067" d="M0,2 L14,6 L0,11 L0,2" fill="#323232" stroke="#323232" stroke-width="2"></path></marker><marker id="SvgjsMarker1070" markerWidth="16" markerHeight="12" refX="16" refY="6" viewBox="0 0 16 12" orient="auto" markerUnits="userSpaceOnUse" stroke-dasharray="0,0"><path id="SvgjsPath1071" d="M0,2 L14,6 L0,11 L0,2" fill="#323232" stroke="#323232" stroke-width="2"></path></marker><marker id="SvgjsMarker1074" markerWidth="16" markerHeight="12" refX="16" refY="6" viewBox="0 0 16 12" orient="auto" markerUnits="userSpaceOnUse" stroke-dasharray="0,0"><path id="SvgjsPath1075" d="M0,2 L14,6 L0,11 L0,2" fill="#323232" stroke="#323232" stroke-width="2"></path></marker><marker id="SvgjsMarker1078" markerWidth="16" markerHeight="12" refX="16" refY="6" viewBox="0 0 16 12" orient="auto" markerUnits="userSpaceOnUse" stroke-dasharray="0,0"><path id="SvgjsPath1079" d="M0,2 L14,6 L0,11 L0,2" fill="#323232" stroke="#323232" stroke-width="2"></path></marker><marker id="SvgjsMarker1086" markerWidth="16" markerHeight="12" refX="16" refY="6" viewBox="0 0 16 12" orient="auto" markerUnits="userSpaceOnUse" stroke-dasharray="0,0"><path id="SvgjsPath1087" d="M0,2 L14,6 L0,11 L0,2" fill="#323232" stroke="#323232" stroke-width="2"></path></marker><marker id="SvgjsMarker1100" markerWidth="16" markerHeight="12" refX="16" refY="6" viewBox="0 0 16 12" orient="auto" markerUnits="userSpaceOnUse" stroke-dasharray="0,0"><path id="SvgjsPath1101" d="M0,2 L14,6 L0,11 L0,2" fill="#323232" stroke="#323232" stroke-width="2"></path></marker></defs><g id="SvgjsG1008" transform="translate(141.5,25)"><path id="SvgjsPath1009" d="M 16.666666666666668 0L 83.33333333333333 0C 105.55555555555556 0 105.55555555555556 50 83.33333333333333 50L 16.666666666666668 50C -5.555555555555556 50 -5.555555555555556 0 16.666666666666668 0Z" stroke="rgba(50,50,50,1)" stroke-width="2" fill-opacity="1" fill="#ffffff"></path><g id="SvgjsG1010"><text id="SvgjsText1011" font-family="微软雅黑" text-anchor="middle" font-size="18px" width="80px" fill="#323232" font-weight="400" align="middle" lineHeight="125%" anchor="middle" family="微软雅黑" size="18px" weight="400" font-style="" opacity="1" y="11.75" transform="rotate(0)"><tspan id="SvgjsTspan1012" dy="22" x="50"><tspan id="SvgjsTspan1013" style="text-decoration:;">开始</tspan></tspan></text></g></g><g id="SvgjsG1014" transform="translate(55.75,116)"><path id="SvgjsPath1015" d="M 15 0L 271.5 0L 256.5 45L 0 45L 15 0Z" stroke="rgba(50,50,50,1)" stroke-width="2" fill-opacity="1" fill="#ffffff"></path><g id="SvgjsG1016"><text id="SvgjsText1017" font-family="微软雅黑" text-anchor="middle" font-size="17px" width="191px" fill="#323232" font-weight="400" align="middle" lineHeight="125%" anchor="middle" family="微软雅黑" size="17px" weight="400" font-style="" opacity="1" y="9.875" transform="rotate(0)"><tspan id="SvgjsTspan1018" dy="21" x="136.225"><tspan id="SvgjsTspan1019" style="text-decoration:;">用户输入明文P 和 密钥K</tspan></tspan></text></g></g><g id="SvgjsG1020"><path id="SvgjsPath1021" d="M191.5 75L191.5 95.5L191.5 95.5L191.5 116" stroke="#323232" stroke-width="2" fill="none" marker-end="url(#SvgjsMarker1022)"></path></g><g id="SvgjsG1024" transform="translate(76.5,277.5)"><path id="SvgjsPath1025" d="M 0 0L 230 0L 230 45L 0 45Z" stroke="rgba(50,50,50,1)" stroke-width="2" fill-opacity="1" fill="#ffffff"></path><g id="SvgjsG1026"><text id="SvgjsText1027" font-family="微软雅黑" text-anchor="middle" font-size="16px" width="210px" fill="#323232" font-weight="400" align="middle" lineHeight="125%" anchor="middle" family="微软雅黑" size="16px" weight="400" font-style="" opacity="1" y="10.5" transform="rotate(0)"><tspan id="SvgjsTspan1028" dy="20" x="115"><tspan id="SvgjsTspan1029" style="text-decoration:;">去除明文中所有非字母字符</tspan></tspan></text></g></g><g id="SvgjsG1030" transform="translate(73,197)"><path id="SvgjsPath1031" d="M 0 0L 237 0L 237 45L 0 45Z" stroke="rgba(50,50,50,1)" stroke-width="2" fill-opacity="1" fill="#ffffff"></path><g id="SvgjsG1032"><text id="SvgjsText1033" font-family="微软雅黑" text-anchor="middle" font-size="16px" width="217px" fill="#323232" font-weight="400" align="middle" lineHeight="125%" anchor="middle" family="微软雅黑" size="16px" weight="400" font-style="" opacity="1" y="10.5" transform="rotate(0)"><tspan id="SvgjsTspan1034" dy="20" x="118.5"><tspan id="SvgjsTspan1035" style="text-decoration:;">明文中的英文字母均转为小写</tspan></tspan></text></g></g><g id="SvgjsG1036" transform="translate(492,356.5)"><path id="SvgjsPath1037" d="M 0 0L 263 0L 263 45L 0 45Z" stroke="rgba(50,50,50,1)" stroke-width="2" fill-opacity="1" fill="#ffffff"></path><g id="SvgjsG1038"><text id="SvgjsText1039" font-family="微软雅黑" text-anchor="middle" font-size="16px" width="243px" fill="#323232" font-weight="400" align="middle" lineHeight="125%" anchor="middle" family="微软雅黑" size="16px" weight="400" font-style="" opacity="1" y="10.5" transform="rotate(0)"><tspan id="SvgjsTspan1040" dy="20" x="131.5"><tspan id="SvgjsTspan1041" style="text-decoration:;">单、双、三 字符频率分析</tspan></tspan></text></g></g><g id="SvgjsG1042" transform="translate(25,356.5)"><path id="SvgjsPath1043" d="M 15 0L 333 0L 318 45L 0 45L 15 0Z" stroke="rgba(50,50,50,1)" stroke-width="2" fill-opacity="1" fill="#ffffff"></path><g id="SvgjsG1044"><text id="SvgjsText1045" font-family="微软雅黑" text-anchor="middle" font-size="16px" width="234px" fill="#323232" font-weight="400" align="middle" lineHeight="125%" anchor="middle" family="微软雅黑" size="16px" weight="400" font-style="" opacity="1" y="10.5" transform="rotate(0)"><tspan id="SvgjsTspan1046" dy="20" x="166.95"><tspan id="SvgjsTspan1047" style="text-decoration:;">执行维吉尼亚加密，得到 密文C</tspan></tspan></text></g></g><g id="SvgjsG1048" transform="translate(492,277.5)"><path id="SvgjsPath1049" d="M 0 0L 263 0L 263 45L 0 45Z" stroke="rgba(50,50,50,1)" stroke-width="2" fill-opacity="1" fill="#ffffff"></path><g id="SvgjsG1050"><text id="SvgjsText1051" font-family="微软雅黑" text-anchor="middle" font-size="16px" width="243px" fill="#323232" font-weight="400" align="middle" lineHeight="125%" anchor="middle" family="微软雅黑" size="16px" weight="400" font-style="" opacity="1" y="10.5" transform="rotate(0)"><tspan id="SvgjsTspan1052" dy="20" x="131.5"><tspan id="SvgjsTspan1053" style="text-decoration:;">单、双、三 字符频率分析</tspan></tspan></text></g></g><g id="SvgjsG1054" transform="translate(76.5,439)"><path id="SvgjsPath1055" d="M 0 0L 230 0L 230 45L 0 45Z" stroke="rgba(50,50,50,1)" stroke-width="2" fill-opacity="1" fill="#ffffff"></path><g id="SvgjsG1056"><text id="SvgjsText1057" font-family="微软雅黑" text-anchor="middle" font-size="16px" width="210px" fill="#323232" font-weight="400" align="middle" lineHeight="125%" anchor="middle" family="微软雅黑" size="16px" weight="400" font-style="" opacity="1" y="10.5" transform="rotate(0)"><tspan id="SvgjsTspan1058" dy="20" x="115"><tspan id="SvgjsTspan1059" style="text-decoration:;">Kasiski 密钥长度分析</tspan></tspan></text></g></g><g id="SvgjsG1060"><path id="SvgjsPath1061" d="M191.5 161L191.5 179L191.5 179L191.5 197" stroke="#323232" stroke-width="2" fill="none" marker-end="url(#SvgjsMarker1062)"></path></g><g id="SvgjsG1064"><path id="SvgjsPath1065" d="M191.5 242L191.5 260L191.5 260L191.5 277.5" stroke="#323232" stroke-width="2" fill="none" marker-end="url(#SvgjsMarker1066)"></path></g><g id="SvgjsG1068"><path id="SvgjsPath1069" d="M191.5 322.5L191.5 339L191.5 339L191.5 356.5" stroke="#323232" stroke-width="2" fill="none" marker-end="url(#SvgjsMarker1070)"></path></g><g id="SvgjsG1072"><path id="SvgjsPath1073" d="M191.5 401.5L191.5 419.5L191.5 419.5L191.5 439" stroke="#323232" stroke-width="2" fill="none" marker-end="url(#SvgjsMarker1074)"></path></g><g id="SvgjsG1076"><path id="SvgjsPath1077" d="M306.5 300L399 300L399 300L492 300" stroke="#323232" stroke-width="2" fill="none" marker-end="url(#SvgjsMarker1078)"></path><rect id="SvgjsRect1080" width="89" height="16" x="354.75" y="292" fill="#ffffff"></rect><text id="SvgjsText1081" font-family="微软雅黑" text-anchor="middle" font-size="13px" width="89px" fill="#323232" font-weight="400" align="top" lineHeight="16px" anchor="middle" family="微软雅黑" size="13px" weight="400" font-style="" opacity="1" y="290.375" transform="rotate(0)"><tspan id="SvgjsTspan1082" dy="16" x="399.25"><tspan id="SvgjsTspan1083" style="text-decoration:;">处理后的明文P'</tspan></tspan></text></g><g id="SvgjsG1084"><path id="SvgjsPath1085" d="M350.6666666666667 379L421.08333333333337 379L421.08333333333337 379L492 379" stroke="#323232" stroke-width="2" fill="none" marker-end="url(#SvgjsMarker1086)"></path><rect id="SvgjsRect1088" width="35" height="16" x="403.8333333333333" y="371" fill="#ffffff"></rect><text id="SvgjsText1089" font-family="微软雅黑" text-anchor="middle" font-size="13px" width="35px" fill="#323232" font-weight="400" align="top" lineHeight="16px" anchor="middle" family="微软雅黑" size="13px" weight="400" font-style="" opacity="1" y="369.375" transform="rotate(0)"><tspan id="SvgjsTspan1090" dy="16" x="421.3333333333333"><tspan id="SvgjsTspan1091" style="text-decoration:;">密文C</tspan></tspan></text></g><g id="SvgjsG1092" transform="translate(141.5,520)"><path id="SvgjsPath1093" d="M 16.666666666666668 0L 83.33333333333333 0C 105.55555555555556 0 105.55555555555556 50 83.33333333333333 50L 16.666666666666668 50C -5.555555555555556 50 -5.555555555555556 0 16.666666666666668 0Z" stroke="rgba(50,50,50,1)" stroke-width="2" fill-opacity="1" fill="#ffffff"></path><g id="SvgjsG1094"><text id="SvgjsText1095" font-family="微软雅黑" text-anchor="middle" font-size="16px" width="80px" fill="#323232" font-weight="400" align="middle" lineHeight="125%" anchor="middle" family="微软雅黑" size="16px" weight="400" font-style="" opacity="1" y="13" transform="rotate(0)"><tspan id="SvgjsTspan1096" dy="20" x="50"><tspan id="SvgjsTspan1097" style="text-decoration:;">结束</tspan></tspan></text></g></g><g id="SvgjsG1098"><path id="SvgjsPath1099" d="M191.5 484L191.5 502L191.5 502L191.5 520" stroke="#323232" stroke-width="2" fill="none" marker-end="url(#SvgjsMarker1100)"></path></g></svg>